<svg width="50" height="60" viewBox="0 0 50 60" fill="none" xmlns="http://www.w3.org/2000/svg">
<path d="M40.4502 5.5917C37.6463 3.27505 34.3679 1.61519 30.8514 0.731847C27.3349 -0.1515 23.6679 -0.236316 20.115 0.483516C15.5467 1.42863 11.3439 3.67893 8.00728 6.96638C4.67064 10.2538 2.34079 14.4398 1.29528 19.0258C0.249762 23.6117 0.532649 28.4043 2.11024 32.8325C3.68783 37.2608 6.49363 41.1381 10.1934 44.0027C14.4175 47.1224 18.0141 51.0257 20.7907 55.5036L22.6826 58.6781C22.9229 59.0814 23.2625 59.415 23.6683 59.6466C24.0742 59.8783 24.5325 60 24.9988 60C25.4651 60 25.9234 59.8783 26.3293 59.6466C26.7352 59.415 27.0747 59.0814 27.315 58.6781L29.1285 55.629C31.5464 51.3401 34.8432 47.6209 38.7988 44.7199C41.9004 42.5666 44.4637 39.7153 46.2865 36.3912C48.1092 33.0671 49.1415 29.361 49.3019 25.5654C49.4623 21.7697 48.7464 17.9884 47.2107 14.5198C45.675 11.0512 43.3616 7.99007 40.4529 5.57807L40.4502 5.5917ZM24.9961 35.4581C22.8579 35.4581 20.7678 34.8183 18.9899 33.6196C17.2121 32.4209 15.8265 30.7171 15.0082 28.7237C14.19 26.7304 13.9759 24.5369 14.393 22.4207C14.8102 20.3046 15.8398 18.3608 17.3517 16.8351C18.8636 15.3094 20.7899 14.2704 22.887 13.8495C24.9841 13.4286 27.1578 13.6446 29.1332 14.4703C31.1086 15.296 32.7971 16.6942 33.985 18.4882C35.1729 20.2822 35.8069 22.3914 35.8069 24.549C35.8069 27.4423 34.6679 30.217 32.6405 32.2629C30.6131 34.3088 27.8633 35.4581 24.9961 35.4581Z" fill="#FFD164"/>
</svg>
