<svg width="60" height="60" viewBox="0 0 60 60" fill="none" xmlns="http://www.w3.org/2000/svg">
<path d="M37.6172 1.75781C37.6172 0.787031 36.8302 0 35.8594 0H24.1406C23.1698 0 22.3828 0.787031 22.3828 1.75781V4.6875H37.6172V1.75781Z" fill="#FFD164"/>
<path d="M58.2422 56.4844H57.5391V39.4922C57.5391 38.8263 57.1629 38.2177 56.5673 37.92L52.2656 35.7691V56.4844H48.75V30.1172C48.75 29.5294 48.4563 28.9806 47.9672 28.6547L37.4203 21.6234C36.881 21.2638 36.1874 21.2303 35.6159 21.5361C35.0443 21.842 34.6875 22.4377 34.6875 23.0859V56.4844H31.1719V23.0859C31.1719 21.1375 32.2391 19.3559 33.9571 18.4364C34.7197 18.0282 35.5801 17.8125 36.4452 17.8125C37.4902 17.8125 38.502 18.1188 39.3711 18.6987L41.1328 19.8731V9.96094C41.1328 8.99016 40.3458 8.20312 39.375 8.20312H20.625C19.6542 8.20312 18.8672 8.99016 18.8672 9.96094V11.9531H21.7969C24.7046 11.9531 27.0703 14.3188 27.0703 17.2266V56.4844H23.5547V17.2266C23.5547 16.2558 22.7677 15.4688 21.7969 15.4688H11.25C10.2792 15.4688 9.49219 16.2558 9.49219 17.2266V40.6641H13.5938C16.5015 40.6641 18.8672 43.0297 18.8672 45.9375V56.4844H15.3516V45.9375C15.3516 44.9667 14.5645 44.1797 13.5938 44.1797H4.21875C3.24797 44.1797 2.46094 44.9667 2.46094 45.9375V56.4844H1.75781C0.787031 56.4844 0 57.2714 0 58.2422C0 59.213 0.787031 60 1.75781 60H58.2422C59.213 60 60 59.213 60 58.2422C60 57.2714 59.213 56.4844 58.2422 56.4844ZM39.9609 35.9766C39.9609 35.0058 40.748 34.2188 41.7188 34.2188C42.6895 34.2188 43.4766 35.0058 43.4766 35.9766V39.4922C43.4766 40.463 42.6895 41.25 41.7188 41.25C40.748 41.25 39.9609 40.463 39.9609 39.4922V35.9766ZM39.9609 46.5234C39.9609 45.5527 40.748 44.7656 41.7188 44.7656C42.6895 44.7656 43.4766 45.5527 43.4766 46.5234V50.0391C43.4766 51.0098 42.6895 51.7969 41.7188 51.7969C40.748 51.7969 39.9609 51.0098 39.9609 50.0391V46.5234ZM18.2812 35.9766C18.2812 36.9473 17.4942 37.7344 16.5234 37.7344C15.5527 37.7344 14.7656 36.9473 14.7656 35.9766V32.4609C14.7656 31.4902 15.5527 30.7031 16.5234 30.7031C17.4942 30.7031 18.2812 31.4902 18.2812 32.4609V35.9766ZM18.2812 25.4297C18.2812 26.4005 17.4942 27.1875 16.5234 27.1875C15.5527 27.1875 14.7656 26.4005 14.7656 25.4297V21.9141C14.7656 20.9433 15.5527 20.1562 16.5234 20.1562C17.4942 20.1562 18.2812 20.9433 18.2812 21.9141V25.4297ZM7.14844 52.3828C7.14844 51.412 7.93547 50.625 8.90625 50.625C9.87703 50.625 10.6641 51.412 10.6641 52.3828V56.4844H7.14844V52.3828Z" fill="#FFD164"/>
</svg>
