<svg width="70" height="60" viewBox="0 0 70 60" fill="none" xmlns="http://www.w3.org/2000/svg">
<path d="M35 23.3694C41.4533 23.3694 46.6847 18.138 46.6847 11.6847C46.6847 5.23142 41.4533 0 35 0C28.5467 0 23.3153 5.23142 23.3153 11.6847C23.3153 18.138 28.5467 23.3694 35 23.3694Z" fill="#FFD164"/>
<path d="M58.638 23.3693C62.7177 23.3693 66.0249 20.0621 66.0249 15.9825C66.0249 11.9028 62.7177 8.59558 58.638 8.59558C54.5584 8.59558 51.2512 11.9028 51.2512 15.9825C51.2512 20.0621 54.5584 23.3693 58.638 23.3693Z" fill="#FFD164"/>
<path d="M11.362 23.3693C15.4417 23.3693 18.7489 20.0621 18.7489 15.9825C18.7489 11.9028 15.4417 8.59558 11.362 8.59558C7.28235 8.59558 3.97513 11.9028 3.97513 15.9825C3.97513 20.0621 7.28235 23.3693 11.362 23.3693Z" fill="#FFD164"/>
<path d="M18.6401 30.0029C15.7323 27.6206 13.099 27.9359 9.73687 27.9359C4.70842 27.9359 0.617432 32.0028 0.617432 37.0003V51.668C0.617432 53.8384 2.38894 55.6032 4.5674 55.6032C13.9724 55.6032 12.8394 55.7733 12.8394 55.1976C12.8394 44.8041 11.6083 37.182 18.6401 30.0029Z" fill="#FFD164"/>
<path d="M38.1979 27.9894C32.3254 27.4996 27.2211 27.9951 22.8184 31.6291C15.4507 37.5306 16.8686 45.4766 16.8686 55.1973C16.8686 57.7692 18.9611 59.9007 21.572 59.9007C49.9218 59.9007 51.0501 60.8152 52.7312 57.0924C53.2826 55.8334 53.1315 56.2335 53.1315 44.1895C53.1315 34.6234 44.8483 27.9894 38.1979 27.9894Z" fill="#FFD164"/>
<path d="M60.2632 27.9357C56.8827 27.9357 54.2638 27.6236 51.36 30.0027C58.3392 37.1285 57.1607 44.2305 57.1607 55.1974C57.1607 55.7768 56.2201 55.603 65.2916 55.603C67.548 55.603 69.3826 53.775 69.3826 51.5281V37.0001C69.3826 32.0025 65.2916 27.9357 60.2632 27.9357Z" fill="#FFD164"/>
</svg>
